<mxfile host="app.diagrams.net" modified="2023-08-24T07:27:45.421Z" agent="Mozilla/5.0 (Windows NT 10.0; Win64; x64) AppleWebKit/537.36 (KHTML, like Gecko) Chrome/116.0.0.0 Safari/537.36" etag="7f0dcO16KYwE99BB9CLb" version="21.6.9" type="github">
  <diagram name="第 1 页" id="7tX598iaDqBV2XGCMpFz">
    <mxGraphModel dx="441" dy="266" grid="1" gridSize="10" guides="1" tooltips="1" connect="1" arrows="1" fold="1" page="1" pageScale="1" pageWidth="827" pageHeight="1169" math="0" shadow="0">
      <root>
        <mxCell id="0" />
        <mxCell id="1" parent="0" />
        <mxCell id="7Q1Yj3Lfi6J98Hcch845-3" value="" style="edgeStyle=orthogonalEdgeStyle;rounded=0;orthogonalLoop=1;jettySize=auto;html=1;" edge="1" parent="1" source="7Q1Yj3Lfi6J98Hcch845-1" target="7Q1Yj3Lfi6J98Hcch845-2">
          <mxGeometry relative="1" as="geometry" />
        </mxCell>
        <mxCell id="7Q1Yj3Lfi6J98Hcch845-4" value="b reset" style="edgeLabel;html=1;align=center;verticalAlign=middle;resizable=0;points=[];" vertex="1" connectable="0" parent="7Q1Yj3Lfi6J98Hcch845-3">
          <mxGeometry x="-0.0833" relative="1" as="geometry">
            <mxPoint as="offset" />
          </mxGeometry>
        </mxCell>
        <mxCell id="7Q1Yj3Lfi6J98Hcch845-1" value="_start(arch/arm/lib/vectors.S)" style="rounded=1;whiteSpace=wrap;html=1;" vertex="1" parent="1">
          <mxGeometry x="120" y="80" width="200" height="60" as="geometry" />
        </mxCell>
        <mxCell id="7Q1Yj3Lfi6J98Hcch845-6" value="" style="edgeStyle=orthogonalEdgeStyle;rounded=0;orthogonalLoop=1;jettySize=auto;html=1;" edge="1" parent="1" source="7Q1Yj3Lfi6J98Hcch845-2" target="7Q1Yj3Lfi6J98Hcch845-5">
          <mxGeometry relative="1" as="geometry" />
        </mxCell>
        <mxCell id="7Q1Yj3Lfi6J98Hcch845-7" value="b save_boot_params" style="edgeLabel;html=1;align=center;verticalAlign=middle;resizable=0;points=[];" vertex="1" connectable="0" parent="7Q1Yj3Lfi6J98Hcch845-6">
          <mxGeometry x="-0.2333" y="-3" relative="1" as="geometry">
            <mxPoint as="offset" />
          </mxGeometry>
        </mxCell>
        <mxCell id="7Q1Yj3Lfi6J98Hcch845-2" value="reset(arch/arm/cpu/armv7/start.S)" style="whiteSpace=wrap;html=1;rounded=1;" vertex="1" parent="1">
          <mxGeometry x="115" y="200" width="210" height="60" as="geometry" />
        </mxCell>
        <mxCell id="7Q1Yj3Lfi6J98Hcch845-9" value="" style="edgeStyle=orthogonalEdgeStyle;rounded=0;orthogonalLoop=1;jettySize=auto;html=1;" edge="1" parent="1" source="7Q1Yj3Lfi6J98Hcch845-5" target="7Q1Yj3Lfi6J98Hcch845-8">
          <mxGeometry relative="1" as="geometry" />
        </mxCell>
        <mxCell id="7Q1Yj3Lfi6J98Hcch845-10" value="b save_boot_params_ret" style="edgeLabel;html=1;align=center;verticalAlign=middle;resizable=0;points=[];" vertex="1" connectable="0" parent="7Q1Yj3Lfi6J98Hcch845-9">
          <mxGeometry x="-0.075" y="4" relative="1" as="geometry">
            <mxPoint as="offset" />
          </mxGeometry>
        </mxCell>
        <mxCell id="7Q1Yj3Lfi6J98Hcch845-5" value="save_boot_params(arch/arm/cpu/armv7/start.S)" style="whiteSpace=wrap;html=1;rounded=1;" vertex="1" parent="1">
          <mxGeometry x="85" y="310" width="270" height="60" as="geometry" />
        </mxCell>
        <mxCell id="7Q1Yj3Lfi6J98Hcch845-12" value="" style="edgeStyle=orthogonalEdgeStyle;rounded=0;orthogonalLoop=1;jettySize=auto;html=1;" edge="1" parent="1" source="7Q1Yj3Lfi6J98Hcch845-8" target="7Q1Yj3Lfi6J98Hcch845-11">
          <mxGeometry relative="1" as="geometry" />
        </mxCell>
        <mxCell id="7Q1Yj3Lfi6J98Hcch845-8" value="save_boot_params_ret(arch/arm/cpu/armv7/start.S)" style="whiteSpace=wrap;html=1;rounded=1;" vertex="1" parent="1">
          <mxGeometry x="80" y="410" width="280" height="60" as="geometry" />
        </mxCell>
        <mxCell id="7Q1Yj3Lfi6J98Hcch845-14" value="" style="edgeStyle=orthogonalEdgeStyle;rounded=0;orthogonalLoop=1;jettySize=auto;html=1;" edge="1" parent="1" source="7Q1Yj3Lfi6J98Hcch845-11" target="7Q1Yj3Lfi6J98Hcch845-13">
          <mxGeometry relative="1" as="geometry" />
        </mxCell>
        <mxCell id="7Q1Yj3Lfi6J98Hcch845-15" value="bl cpu_init_cp15&lt;br&gt;bl cpu_init_crit" style="edgeLabel;html=1;align=center;verticalAlign=middle;resizable=0;points=[];" vertex="1" connectable="0" parent="7Q1Yj3Lfi6J98Hcch845-14">
          <mxGeometry x="-0.25" y="3" relative="1" as="geometry">
            <mxPoint as="offset" />
          </mxGeometry>
        </mxCell>
        <mxCell id="7Q1Yj3Lfi6J98Hcch845-11" value="执行一些操作&lt;br&gt;#ifndef CONFIG_SKIP_LOWEVEL_INIT满足" style="whiteSpace=wrap;html=1;rounded=1;" vertex="1" parent="1">
          <mxGeometry x="80" y="500" width="280" height="60" as="geometry" />
        </mxCell>
        <mxCell id="7Q1Yj3Lfi6J98Hcch845-17" value="" style="edgeStyle=orthogonalEdgeStyle;rounded=0;orthogonalLoop=1;jettySize=auto;html=1;" edge="1" parent="1" source="7Q1Yj3Lfi6J98Hcch845-13" target="7Q1Yj3Lfi6J98Hcch845-16">
          <mxGeometry relative="1" as="geometry" />
        </mxCell>
        <mxCell id="7Q1Yj3Lfi6J98Hcch845-18" value="cpu_init_crit中&lt;br&gt;b lowlevel_init" style="edgeLabel;html=1;align=center;verticalAlign=middle;resizable=0;points=[];" vertex="1" connectable="0" parent="7Q1Yj3Lfi6J98Hcch845-17">
          <mxGeometry x="-0.075" y="-1" relative="1" as="geometry">
            <mxPoint as="offset" />
          </mxGeometry>
        </mxCell>
        <mxCell id="7Q1Yj3Lfi6J98Hcch845-13" value="cpu_init_cp15(start.S)&lt;br&gt;cpu_init_crit(start.S)" style="whiteSpace=wrap;html=1;rounded=1;" vertex="1" parent="1">
          <mxGeometry x="160" y="620" width="120" height="60" as="geometry" />
        </mxCell>
        <mxCell id="7Q1Yj3Lfi6J98Hcch845-20" value="" style="edgeStyle=orthogonalEdgeStyle;rounded=0;orthogonalLoop=1;jettySize=auto;html=1;" edge="1" parent="1" source="7Q1Yj3Lfi6J98Hcch845-16" target="7Q1Yj3Lfi6J98Hcch845-19">
          <mxGeometry relative="1" as="geometry" />
        </mxCell>
        <mxCell id="7Q1Yj3Lfi6J98Hcch845-16" value="lowlevel_init(arch/arm/cpu/armv7/lowlevel_init.S)" style="whiteSpace=wrap;html=1;rounded=1;" vertex="1" parent="1">
          <mxGeometry x="80" y="740" width="280" height="40" as="geometry" />
        </mxCell>
        <mxCell id="7Q1Yj3Lfi6J98Hcch845-23" value="" style="edgeStyle=orthogonalEdgeStyle;rounded=0;orthogonalLoop=1;jettySize=auto;html=1;" edge="1" parent="1" source="7Q1Yj3Lfi6J98Hcch845-19" target="7Q1Yj3Lfi6J98Hcch845-22">
          <mxGeometry relative="1" as="geometry">
            <Array as="points">
              <mxPoint x="460" y="935" />
              <mxPoint x="460" y="1140" />
            </Array>
          </mxGeometry>
        </mxCell>
        <mxCell id="7Q1Yj3Lfi6J98Hcch845-24" value="调用s_init函数&lt;br&gt;arch/arm/cpu/armv7/mx6/soc.c" style="edgeLabel;html=1;align=center;verticalAlign=middle;resizable=0;points=[];" vertex="1" connectable="0" parent="7Q1Yj3Lfi6J98Hcch845-23">
          <mxGeometry x="-0.1434" y="-4" relative="1" as="geometry">
            <mxPoint x="4" y="11" as="offset" />
          </mxGeometry>
        </mxCell>
        <mxCell id="7Q1Yj3Lfi6J98Hcch845-19" value="第22行设置sp指向CONFIG_SYS_INIT_SP_ADDR（include/config/mx6ullevk.h)&lt;br&gt;IRAM_BASE_ADDR=0x00900000&lt;br&gt;IRAM_SIZE=0x00020000(128KB)&lt;br&gt;所以，&lt;br&gt;CONFIG_SYS_INIT_RAM_ADDR=IRAM_BASE_ADDR=0X00900000&lt;br&gt;CONFIG_SYS_INIT_RAM_SIZE=IRAM_SIZE=0X00020000=128KB&lt;br&gt;同时，由于GENERATED_GBL_DATA_SIZE=256(include/generated/generic-asm-offset.h)，&lt;br&gt;因此，&lt;br&gt;CONFIG_SYS_INIT_SP_OFFSET=0x00020000 - 256 = 0x1FF00&lt;br&gt;CONFIG_SYS_INIT_SP_ADDR=0x00900000+0x1FF00=0x0091FF00" style="whiteSpace=wrap;html=1;rounded=1;align=left;" vertex="1" parent="1">
          <mxGeometry x="22.5" y="820" width="395" height="230" as="geometry" />
        </mxCell>
        <mxCell id="7Q1Yj3Lfi6J98Hcch845-22" value="不符合CPU型号，返回" style="whiteSpace=wrap;html=1;align=center;rounded=1;" vertex="1" parent="1">
          <mxGeometry x="145" y="1129" width="150" height="40" as="geometry" />
        </mxCell>
        <mxCell id="7Q1Yj3Lfi6J98Hcch845-25" value="save_boot_params_ret中调用&lt;br&gt;_main函数(arch/arm/lib/crt0.S)" style="rounded=1;whiteSpace=wrap;html=1;" vertex="1" parent="1">
          <mxGeometry x="410" y="80" width="170" height="60" as="geometry" />
        </mxCell>
      </root>
    </mxGraphModel>
  </diagram>
</mxfile>
